<svg xmlns="http://www.w3.org/2000/svg" xmlns:xlink="http://www.w3.org/1999/xlink" width="203.95" height="53.221" viewBox="0 0 203.95 53.221"><defs><style>.a,.c{fill:none;}.b{clip-path:url(#a);}.c{stroke:#010306;stroke-width:2px;}.d{fill:#fff;}.e{fill:#2b2e34;}.f{fill:#010306;}</style><clipPath id="a"><path class="a" d="M0,3.716H203.95V-49.505H0Z" transform="translate(0 49.505)"/></clipPath></defs><g transform="translate(0 49.505)"><g class="b" transform="translate(0 -49.505)"><g transform="translate(60.652 29.155)"><path class="c" d="M0,0H142.925"/></g><g transform="translate(0 0)"><path class="d" d="M0,1.488C0-10.281,10.759-19.82,24.03-19.82S48.058-10.281,48.058,1.488,37.3,22.795,24.03,22.795,0,13.257,0,1.488" transform="translate(0 19.82)"/></g><g transform="translate(32.22 10.068)"><path class="e" d="M.332.8S3.5-.647,2.841-1.983c-1.277-2.6,2.068-5.408,3.09-3.363S6.52-3.593,8-4.8,5.18-12.229.255-10.368s-4.384,1.786-4.663,2.9S.332.8.332.8" transform="translate(4.418 10.713)"/></g><g transform="translate(7.783 9.408)"><path class="d" d="M1.771,2.194c-.7-2.858.733-2.332.8-3.585S6.62-7.434,6.62-7.434A10.162,10.162,0,0,0,3.9-11.848,29.527,29.527,0,0,0,5.595-18.03C5.85-20.561.857-26.3.857-26.3S-5.3-31.551-15.13-27.973-22.1-21.189-22.1-21.189l-.7,3.625a9.1,9.1,0,0,0-.487,5.855c.9,2.858,3.572,8.555,2.387,11.274" transform="translate(23.592 29.221)"/></g><g transform="translate(2.893 7.577)"><path class="e" d="M.932.284S.653-1.482-.37-1.762s-4.74-4.46-8.363.094S-13.441,4.786-11.4,5.715-12.73,7.441-8.918,8.276s.742,2.418,1.672,2.6,2.789-2.508,3.067.094,2.7-2.417,3.067-4.276,1.023-1.95.558-3.438S.467.561.932.284" transform="translate(12.42 3.781)"/></g><g transform="translate(16.567 15.545)"><path class="e" d="M.743,0A24.535,24.535,0,0,1,2.51,6.971C2.6,9.944,4,9.573,4.275,11.153s-1.209,1.673-.836,3.067A2.855,2.855,0,0,1,2.6,17.38a2.26,2.26,0,0,0-.649,2.882s-.092-.836-1.766-.744-1.022.836-.743,1.207c0,0-4.554-1.394-5.114-2.6s-2.788-2.137-2.7-3.161-1.206-.371-1.486-1.021.651-.372,1.393-.651,1.581-3.81,2.7-2.508,2.418-.28,3.255,1.021,1.672-.65,1.858-1.58a1.944,1.944,0,0,1,1.114-1.3S-.556,5.763-.743,7.53c0,0,.743.742-.744,1.578S-3.9,7.434-6.04,6.041c0,0-1.861.649-2.325-.092s1.3-.929,2.325-.836,2.879-.558,4.834-.277.277-.559-.372-1.209,0-1.394,1.765-1.674S-.187.836.743,0" transform="translate(9.902)"/></g><g transform="translate(23.677 10.816)"><path class="e" d="M.162.194S.627,2.426-.115,1.867-.4.938-.767.287s-.372-1.022-.744-1.3-1.671-2.138.932-1.394,6.97,4.182,6.5,9.48c-.182,2.081-1.952-2.79-2.51-3.9S.069-3.431.162.194" transform="translate(2.165 2.582)"/></g><g transform="translate(33.619 23.859)"><path class="e" d="M.137.01S-1.722-.454-1.814.288A4.467,4.467,0,0,0-.7,2.8C-.329,3.17.323,1.125.323.381" transform="translate(1.822 0.133)"/></g><g transform="translate(28.978 30.437)"><path class="e" d="M.63.122S-1.044.586-1.324-.249-2.438-2.2-4.576-1.271s-1.857,2.6-1.3,3.438S-7.829,4.212-8.387,4.118a2.923,2.923,0,0,0,1.58,1.3c1.023.28-.094.372-.094.372s2.233.836,3.719.185S-.394,2.539-.3,2.074,1,1.236.63.122" transform="translate(8.387 1.623)"/></g><g transform="translate(32.181 18.704)"><path class="e" d="M.1,0S-.18,1.881-.53,2.16s-1.323.559-.417,1.4.488.906.906,1.186a2.979,2.979,0,0,0,2.369-.489,4.062,4.062,0,0,0,.7-1.393S1.565,3,1.493,1.881A1.865,1.865,0,0,0,.1,0" transform="translate(1.322)"/></g><g transform="translate(6.063 37.274)"><path class="d" d="M.142,0S-2.122.546-.59,2.537c0,0-2.523,2.3-.55,6.033,0,0,16.557,13.542,31.587,3.93,6.047-3.865,1.1-8.976,1.1-8.976A1.937,1.937,0,0,0,30.485.984S21.411,9.593.142,0" transform="translate(1.894)"/></g><g transform="translate(7.243 39.811)"><path class="e" d="M.009,0S6.046,6.591,19.822,6.168C32.253,5.786,32.147.987,32.147.987s1.365,1.033-.06,3S19.748,11.273,4.7,4.206C-1.185,1.441-.046.12.009,0" transform="translate(0.115)"/></g><g transform="translate(8.588 44.232)"><path class="e" d="M0,.052A.737.737,0,0,1,.737-.687a.739.739,0,1,1,0,1.478A.738.738,0,0,1,0,.052" transform="translate(0 0.687)"/></g><g transform="translate(10.858 45.536)"><path class="e" d="M0,.052A.738.738,0,0,1,.737-.687a.739.739,0,0,1,.74.739A.739.739,0,0,1,.737.79.738.738,0,0,1,0,.052" transform="translate(0 0.687)"/></g><g transform="translate(9.845 27.482)"><path class="e" d="M.5.747C-.292-.569-.162-1.306-1.25-2.066-2.157-2.7-3-2.649-3.967-4.2A7.675,7.675,0,0,1-5.034-8.178c-.1-1.165-1.747-2.62-1.552-1.165,0,0,1.241,6.489,1.434,8.492.154,1.6.479.862,1.244.957S-2.186,1.35-.749,1.829.881,1.389.5.747" transform="translate(6.603 9.953)"/></g><g transform="translate(8.1 37.274)"><path class="e" d="M0,0S5.566,3.887,17.606,4.78c0,0,7.991.076,12.736-3.8,0,0,1.09.45.376,1.209S26.8,6.3,17.606,6.028a36.99,36.99,0,0,1-16.441-4.7A2.082,2.082,0,0,1,0,0"/></g><g transform="translate(59.737 6.914)"><path class="f" d="M.2.656C.2,2.728.471,3.08,2.19,3.08v.6H-2.7v-.6C-.978,3.08-.73,2.728-.73.656V-5.721c0-2.072-.248-2.423-1.967-2.423v-.6H1.444l4,8.967L9.314-8.745h4.038v.6c-1.739,0-1.988.352-1.988,2.423V.656c0,2.072.248,2.423,1.988,2.423v.6H6.89v-.6c1.719,0,1.989-.352,1.989-2.423V-5.327L4.821,4.032H4.365L.2-5.307Z" transform="translate(2.697 8.745)"/></g><g transform="translate(81.315 6.915)"><path class="f" d="M0,.868v-.6c1.718,0,1.966-.353,1.966-2.424V-8.534c0-2.071-.248-2.423-1.966-2.423v-.6H6.543v.6c-1.718,0-1.988.353-1.988,2.423v6.377c0,2.072.27,2.424,1.988,2.424v.6Z" transform="translate(0 11.557)"/></g><g transform="translate(93.547 6.915)"><path class="f" d="M0,.042v-.6H6.543v.6c-1.718,0-1.988.353-1.988,2.423V8.511c0,2.072.27,2.423,1.988,2.423H8.925c1.905,0,2.133-.476,2.4-1.574l.1-.414h.6l-.166,2.92H0v-.6c1.718,0,1.966-.353,1.966-2.424V2.465C1.966.395,1.718.042,0,.042" transform="translate(0 0.558)"/></g><g transform="translate(109.77 6.915)"><path class="f" d="M0,.826C1.718.826,1.966.473,1.966-1.6V-7.975C1.966-10.046,1.718-10.4,0-10.4V-11H10.665L10.83-8.08h-.6l-.1-.413c-.29-1.1-.5-1.574-2.4-1.574H4.555v4.452h1.14c2.071,0,2.4-.27,2.4-1.988h.6V-2.7H8.1c0-1.739-.331-1.988-2.4-1.988H4.555V-1.93c0,2.072.27,2.423,1.988,2.423H8.407c1.905,0,2.133-.476,2.4-1.574l.1-.414h.6l-.167,2.92H0Z" transform="translate(0 10.999)"/></g><g transform="translate(127.013 6.459)"><path class="f" d="M.042.924h-.6V-3.633h.6A4.166,4.166,0,0,0,3.873-.008a1.9,1.9,0,0,0,2.071-2.05A2.554,2.554,0,0,0,4.411-4.15L2.423-5.186C.684-6.076-.372-7.049-.372-9.1a3.383,3.383,0,0,1,3.6-3.107,3.868,3.868,0,0,1,2.526.849,1.767,1.767,0,0,0,.6-.953h.579v4.556h-.6c-.144-1.658-.808-3.541-2.982-3.541A1.638,1.638,0,0,0,1.678-9.637,2.718,2.718,0,0,0,3.335-7.525L5.323-6.51A4.349,4.349,0,0,1,7.994-2.845,3.931,3.931,0,0,1,3.873.924C2.3.924,1.305.1.643-.049a1.753,1.753,0,0,0-.6.973" transform="translate(0.558 12.309)"/></g><g transform="translate(140.277 6.988)"><path class="f" d="M.9.2H.3L.2-.209c-.27-1.1-.5-1.574-2.4-1.574H-4.274V6.685c0,2.072.27,2.424,1.988,2.424v.6H-8.829v-.6c1.719,0,1.966-.353,1.966-2.424V-1.783H-8.933c-1.885,0-2.111.475-2.381,1.574l-.1.413h-.622l.187-2.919H.737Z" transform="translate(12.04 2.715)"/></g><g transform="translate(156.591 6.562)"><path class="f" d="M.482.917a6.763,6.763,0,0,1-6.9-6.564,6.763,6.763,0,0,1,6.9-6.565A6.768,6.768,0,0,1,7.4-5.648,6.768,6.768,0,0,1,.482.917m0-12.135c-2.921,0-4.121,3.064-4.121,5.571S-2.439-.077.482-.077C3.423-.077,4.6-3.142,4.6-5.648S3.423-11.219.482-11.219" transform="translate(6.415 12.213)"/></g><g transform="translate(174.383 6.914)"><path class="f" d="M.772.211C.772-1.86.5-2.212-1.217-2.212v-.6H3.691v.6C1.951-2.212,1.7-1.86,1.7.211V9.964H1.186L-7.388-.265V6.588c0,2.072.27,2.423,1.989,2.423v.6h-4.887v-.6c1.719,0,1.966-.352,1.966-2.423V.211c0-2.072-.247-2.423-1.966-2.423v-.6h4.141L.772,5.43Z" transform="translate(10.286 2.813)"/></g><g transform="translate(192.437 6.915)"><path class="f" d="M0,.826C1.719.826,1.966.473,1.966-1.6V-7.975C1.966-10.046,1.719-10.4,0-10.4V-11H10.665l.164,2.919h-.6l-.1-.413c-.29-1.1-.5-1.574-2.4-1.574H4.555v4.452h1.14c2.071,0,2.4-.27,2.4-1.988h.6V-2.7H8.1c0-1.739-.331-1.988-2.4-1.988H4.555V-1.93c0,2.072.27,2.423,1.989,2.423H8.407c1.905,0,2.134-.476,2.4-1.574l.1-.414h.6l-.167,2.92H0Z" transform="translate(0 10.999)"/></g></g><path class="f" d="M56.7-5.169h.761v-8.166H56.7Z" transform="translate(4.256 2.715)"/><g transform="translate(66.252 -10.62)"><path class="f" d="M0,0H.98L5.952,7.151h.023V0h.761V8.166H5.756L.784,1.015H.761V8.166H0Z"/></g><g class="b" transform="translate(0 -49.505)"><g transform="translate(77.016 38.677)"><path class="f" d="M.051.479A2.063,2.063,0,0,0,1.919,1.507,1.663,1.663,0,0,0,3.752-.1c0-2.283-4.209-.945-4.209-4.048A2.356,2.356,0,0,1,2.162-6.384,2.652,2.652,0,0,1,4.388-5.356l-.658.472a1.826,1.826,0,0,0-1.591-.807C1.158-5.692.3-5.184.3-4.146c0,2.457,4.21.979,4.21,4.048A2.338,2.338,0,0,1,1.977,2.2,3.072,3.072,0,0,1-.676.965Z" transform="translate(0.676 6.384)"/></g></g><g transform="translate(85.254 -10.62)"><path class="f" d="M.195.048H-2.6V-.644H3.748V.048H.956V7.522H.195Z" transform="translate(2.597 0.644)"/></g><path class="f" d="M88.52-5.169h.76v-8.166h-.76Z" transform="translate(6.645 2.715)"/><g transform="translate(99.493 -10.62)"><path class="f" d="M.195.048h-2.79V-.644H3.748V.048H.957V7.522H.195Z" transform="translate(2.595 0.644)"/></g><g class="b" transform="translate(0 -49.505)"><g transform="translate(109.252 38.885)"><path class="f" d="M.416.352c0,1.741-.749,3.332-2.975,3.332S-5.536,2.093-5.536.352V-4.689h.762V.156c0,1.163.312,2.837,2.215,2.837S-.345,1.32-.345.156V-4.689h.76Z" transform="translate(5.536 4.689)"/></g></g><g transform="translate(118.622 -10.62)"><path class="f" d="M.195.048h-2.79V-.644H3.749V.048H.957V7.522H.195Z" transform="translate(2.595 0.644)"/></g><g transform="translate(128.532 -10.62)"><path class="f" d="M0,0H4.994V.692H.76V3.6H4.729V4.29H.76V7.474H5.179v.692H0Z"/></g></g></svg>